<?xml version="1.0" standalone="no"?><!DOCTYPE svg PUBLIC "-//W3C//DTD SVG 1.1//EN" "http://www.w3.org/Graphics/SVG/1.1/DTD/svg11.dtd"><svg xmlns="http://www.w3.org/2000/svg" version="1.1" width="416.608" height="259.998" xmlns:xlink="http://www.w3.org/1999/xlink" xlink="http://www.w3.org/1999/xlink" style="position:relative;overflow:hidden;" viewBox="71.517 49.878 416.608 259.998"><defs/><g><g width="391.608" height="234.998" transform="scale(1,1) translate(84.017,62.378)"><g stroke="#BFBFBF" stroke-opacity="1" stroke-width="1" stroke-dasharray="none" width="391.608" height="234.998" transform="scale(1,1) translate(0,0)" fill="#CEE7E9" fill-opacity="1"><rect width="391.608" height="234.998"/></g><g transform="scale(1,1) translate(0,0)" fill="#D8D8D8" opacity="1" stroke="#D8D8D8"><path d="M0.5,0.5 L391.108,0.5 L391.108,47.487 L0.5,47.487 z" stroke-width="0" stroke-dasharray="none"/></g><g transform="scale(1,1) translate(0,0)" fill="#FFFFFF" opacity="1" stroke="#FFFFFF"><path d="M0.5,47.487 L101.299,47.487 L101.299,93.616 L0.5,93.616 z M101.299,47.487 L232.929,47.487 L232.929,93.616 L101.299,93.616 z M232.929,47.487 L391.108,47.487 L391.108,93.616 L232.929,93.616 z M0.5,93.616 L101.299,93.616 L101.299,139.746 L0.5,139.746 z M101.299,93.616 L232.929,93.616 L232.929,139.746 L101.299,139.746 z M232.929,93.616 L391.108,93.616 L391.108,139.746 L232.929,139.746 z M0.5,139.746 L101.299,139.746 L101.299,187.122 L0.5,187.122 z M101.299,139.746 L232.929,139.746 L232.929,187.122 L101.299,187.122 z M232.929,139.746 L391.108,139.746 L391.108,187.122 L232.929,187.122 z M0.5,187.122 L101.299,187.122 L101.299,234.498 L0.5,234.498 z M101.299,187.122 L232.929,187.122 L232.929,234.498 L101.299,234.498 z M232.929,187.122 L391.108,187.122 L391.108,234.498 L232.929,234.498 z" stroke-width="0" stroke-dasharray="none"/></g><g width="378.6084652756893" height="34.038694270871225" transform="scale(1,1) translate(6.5,6.476)"><text width="378.6084652756893" height="18.333332061767578" transform="scale(1,1) translate(0,7.852681104551824)" xml:space="preserve"><tspan xml:space="preserve" text-rendering="optimizeSpeed" font-size="16.60035383729087" font-weight="bold" font-style="normal" text-decoration="none" fill="#333333" opacity="1" x="152.39" text-anchor="start" y="15" textLength="73.828125" style="font-family: Arial, Helvetica Neue, Helvetica, sans-serif;">testusers</tspan></text></g><g width="87.79947662353516" height="33.181085767949874" transform="scale(1,1) translate(6.5,53.463)"><text width="87.79947662353516" height="15.833333015441895" transform="scale(1,1) translate(0,8.67387637625399)" xml:space="preserve"><tspan xml:space="preserve" text-rendering="optimizeSpeed" font-size="13.833628197742392" font-weight="normal" font-style="normal" text-decoration="none" fill="#333333" opacity="1" x="0" text-anchor="start" y="12.5" textLength="45.09114456176758" style="font-family: Arial, Helvetica Neue, Helvetica, sans-serif;">primary</tspan></text></g><g width="118.62912705124143" height="33.181085767949874" transform="scale(1,1) translate(107.299,53.463)"><text width="118.62912705124143" height="15.833333015441895" transform="scale(1,1) translate(0,8.67387637625399)" xml:space="preserve"><tspan xml:space="preserve" text-rendering="optimizeSpeed" font-size="13.88888888888889" font-weight="normal" font-style="normal" text-decoration="none" fill="#333333" opacity="1" x="0" text-anchor="start" y="12.5" textLength="18.528644561767578" style="font-family: Arial, Helvetica Neue, Helvetica, sans-serif;">_id</tspan></text></g><g width="145.17986160091272" height="33.181085767949874" transform="scale(1,1) translate(238.929,53.463)"><text width="145.17986160091272" height="15.833333015441895" transform="scale(1,1) translate(0,8.67387637625399)" xml:space="preserve"><tspan xml:space="preserve" text-rendering="optimizeSpeed" font-size="13.833628197742392" font-weight="normal" font-style="normal" text-decoration="none" fill="#333333" opacity="1" x="0" text-anchor="start" y="12.5" textLength="51.5234375" style="font-family: Arial, Helvetica Neue, Helvetica, sans-serif;">ObjectId</tspan></text></g><g width="87.79947662353516" height="33.181085767949874" transform="scale(1,1) translate(6.5,99.592)"><text width="87.79947662353516" height="15.833333015441895" transform="scale(1,1) translate(0,8.67387637625399)" xml:space="preserve"><tspan xml:space="preserve" text-rendering="optimizeSpeed" font-size="13.833628197742392" font-weight="normal" font-style="normal" text-decoration="none" fill="#333333" opacity="1" x="0" text-anchor="start" y="12.5" textLength="62.799476623535156" style="font-family: Arial, Helvetica Neue, Helvetica, sans-serif;">secondary</tspan></text></g><g width="118.62912705124143" height="33.181085767949874" transform="scale(1,1) translate(107.299,99.592)"><text width="118.62912705124143" height="15.833333015441895" transform="scale(1,1) translate(0,8.67387637625399)" xml:space="preserve"><tspan xml:space="preserve" text-rendering="optimizeSpeed" font-size="13.833628197742392" font-weight="normal" font-style="normal" text-decoration="none" fill="#333333" opacity="1" x="0" text-anchor="start" y="12.5" textLength="33.05989456176758" style="font-family: Arial, Helvetica Neue, Helvetica, sans-serif;">email</tspan></text></g><g width="145.17986160091272" height="33.181085767949874" transform="scale(1,1) translate(238.929,99.592)"><text width="145.17986160091272" height="15.833333015441895" transform="scale(1,1) translate(0,8.67387637625399)" xml:space="preserve"><tspan xml:space="preserve" text-rendering="optimizeSpeed" font-size="13.833628197742392" font-weight="normal" font-style="normal" text-decoration="none" fill="#333333" opacity="1" x="0" text-anchor="start" y="12.5" textLength="33.828125" style="font-family: Arial, Helvetica Neue, Helvetica, sans-serif;">string</tspan></text></g><g width="118.62912705124143" height="35.423846505242366" transform="scale(1,1) translate(107.299,145.722)"><text width="118.62912705124143" height="15.833333015441895" transform="scale(1,1) translate(0,9.795256744900236)" xml:space="preserve"><tspan xml:space="preserve" text-rendering="optimizeSpeed" font-size="13.833628197742392" font-weight="normal" font-style="normal" text-decoration="none" fill="#333333" opacity="1" x="0" text-anchor="start" y="12.5" textLength="59.205726623535156" style="font-family: Arial, Helvetica Neue, Helvetica, sans-serif;">password</tspan></text></g><g width="145.17986160091272" height="35.423846505242366" transform="scale(1,1) translate(238.929,145.722)"><text width="145.17986160091272" height="15.833333015441895" transform="scale(1,1) translate(0,9.795256744900236)" xml:space="preserve"><tspan xml:space="preserve" text-rendering="optimizeSpeed" font-size="13.833628197742392" font-weight="normal" font-style="normal" text-decoration="none" fill="#333333" opacity="1" x="0" text-anchor="start" y="12.5" textLength="33.828125" style="font-family: Arial, Helvetica Neue, Helvetica, sans-serif;">string</tspan></text></g><g width="118.62912705124143" height="35.423846505242366" transform="scale(1,1) translate(107.299,193.098)"><text width="118.62912705124143" height="15.833333015441895" transform="scale(1,1) translate(0,9.795256744900236)" xml:space="preserve"><tspan xml:space="preserve" text-rendering="optimizeSpeed" font-size="13.833628197742392" font-weight="normal" font-style="normal" text-decoration="none" fill="#333333" opacity="1" x="0" text-anchor="start" y="12.5" textLength="34.609375" style="font-family: Arial, Helvetica Neue, Helvetica, sans-serif;">name</tspan></text></g><g width="145.17986160091272" height="35.423846505242366" transform="scale(1,1) translate(238.929,193.098)"><text width="145.17986160091272" height="15.833333015441895" transform="scale(1,1) translate(0,9.795256744900236)" xml:space="preserve"><tspan xml:space="preserve" text-rendering="optimizeSpeed" font-size="13.833628197742392" font-weight="normal" font-style="normal" text-decoration="none" fill="#333333" opacity="1" x="0" text-anchor="start" y="12.5" textLength="33.828125" style="font-family: Arial, Helvetica Neue, Helvetica, sans-serif;">string</tspan></text></g><g transform="scale(1,1) translate(0,0)" fill="#BFBFBF" stroke="#BFBFBF" stroke-opacity="1"><path d="M0.5,46.989 L391.108,46.989" fill="none" stroke-width="0.996" stroke-dasharray="none"/><g><g stroke-dasharray="none"><path d="M-0.496,45.993L1.496,45.993L1.496,47.985L-0.496,47.985z" stroke-width="0" fill="none"/></g></g></g><g transform="scale(1,1) translate(0,0)" fill="#BFBFBF" stroke="#BFBFBF" stroke-opacity="1"><path d="M0.5,93.118 L391.108,93.118" fill="none" stroke-width="0.996" stroke-dasharray="none"/><g><g stroke-dasharray="none"><path d="M-0.496,92.122L1.496,92.122L1.496,94.114L-0.496,94.114z" stroke-width="0" fill="none"/></g></g></g><g transform="scale(1,1) translate(0,0)" fill="#BFBFBF" stroke="#BFBFBF" stroke-opacity="1"><path d="M0.5,139.248 L391.108,139.248" fill="none" stroke-width="0.996" stroke-dasharray="none"/><g><g stroke-dasharray="none"><path d="M-0.496,138.252L1.496,138.252L1.496,140.244L-0.496,140.244z" stroke-width="0" fill="none"/></g></g></g><g transform="scale(1,1) translate(0,0)" fill="#BFBFBF" stroke="#BFBFBF" stroke-opacity="1"><path d="M0.5,186.624 L391.108,186.624" fill="none" stroke-width="0.996" stroke-dasharray="none"/><g><g stroke-dasharray="none"><path d="M-0.496,185.628L1.496,185.628L1.496,187.62L-0.496,187.62z" stroke-width="0" fill="none"/></g></g></g><g transform="scale(1,1) translate(0,0)" fill="#BFBFBF" stroke="#BFBFBF" stroke-opacity="1"><path d="M100.799,47.487 L100.799,234.498" fill="none" stroke-width="1" stroke-dasharray="none"/><g><g stroke-dasharray="none"><path d="M99.799,46.487L101.799,46.487L101.799,48.487L99.799,48.487z" stroke-width="0" fill="none"/></g></g></g><g transform="scale(1,1) translate(0,0)" fill="#BFBFBF" stroke="#BFBFBF" stroke-opacity="1"><path d="M232.429,47.487 L232.429,234.498" fill="none" stroke-width="1" stroke-dasharray="none"/><g><g stroke-dasharray="none"><path d="M231.429,46.487L233.429,46.487L233.429,48.487L231.429,48.487z" stroke-width="0" fill="none"/></g></g></g><g stroke="white" fill="none" opacity="0" stroke-width="3" stroke-dasharray="none" width="3" height="233.998" transform="scale(1,1) translate(3.5,0.5)"><rect width="3" height="233.998"/></g><g stroke="white" fill="none" opacity="0" stroke-width="3" stroke-dasharray="none" width="390.608" height="3" transform="scale(1,1) translate(0.5,3.5)"><rect width="390.608" height="3"/></g></g></g></svg>